<?xml version="1.0" encoding="UTF-8" standalone="no"?><svg xmlns:svg="http://www.w3.org/2000/svg" xmlns="http://www.w3.org/2000/svg" xmlns:xlink="http://www.w3.org/1999/xlink" version="1.0" width="64px" height="64px" viewBox="0 0 128 128" xml:space="preserve"><g><ellipse cx="64" cy="18.75" rx="6.25" ry="18.75" fill="#ffffff"/><ellipse cx="64" cy="18.75" rx="6.25" ry="18.75" fill="#ffffff" transform="rotate(30 64 64)"/><ellipse cx="64" cy="18.75" rx="6.25" ry="18.75" fill="#fff3ec" transform="rotate(60 64 64)"/><ellipse cx="64" cy="18.75" rx="6.25" ry="18.75" fill="#ffe8da" transform="rotate(90 64 64)"/><ellipse cx="64" cy="18.75" rx="6.25" ry="18.75" fill="#feddc7" transform="rotate(120 64 64)"/><ellipse cx="64" cy="18.75" rx="6.25" ry="18.75" fill="#fed2b4" transform="rotate(150 64 64)"/><ellipse cx="64" cy="18.75" rx="6.25" ry="18.75" fill="#fec6a1" transform="rotate(180 64 64)"/><ellipse cx="64" cy="18.75" rx="6.25" ry="18.75" fill="#febb8f" transform="rotate(210 64 64)"/><ellipse cx="64" cy="18.75" rx="6.25" ry="18.75" fill="#feb07c" transform="rotate(240 64 64)"/><ellipse cx="64" cy="18.75" rx="6.25" ry="18.75" fill="#fda569" transform="rotate(270 64 64)"/><ellipse cx="64" cy="18.75" rx="6.25" ry="18.75" fill="#fd9956" transform="rotate(300 64 64)"/><ellipse cx="64" cy="18.75" rx="6.25" ry="18.75" fill="#fd8e44" transform="rotate(330 64 64)"/><animateTransform attributeName="transform" type="rotate" values="0 64 64;30 64 64;60 64 64;90 64 64;120 64 64;150 64 64;180 64 64;210 64 64;240 64 64;270 64 64;300 64 64;330 64 64" calcMode="discrete" dur="1080ms" repeatCount="indefinite"></animateTransform></g></svg>